<?xml version="1.0" standalone="no"?>
<!DOCTYPE svg PUBLIC "-//W3C//DTD SVG 20010904//EN"
 "http://www.w3.org/TR/2001/REC-SVG-20010904/DTD/svg10.dtd">
<svg version="1.0" xmlns="http://www.w3.org/2000/svg"
 width="920.000000pt" height="512.000000pt" viewBox="0 0 920.000000 512.000000"
 preserveAspectRatio="xMidYMid meet">

<g transform="translate(0.000000,512.000000) scale(0.100000,-0.100000)"
fill="#000000" stroke="none">
<path d="M6072 4478 c-39 -43 -42 -68 -42 -415 l0 -336 -77 83 c-291 313 -682
516 -1112 576 -138 19 -416 14 -551 -10 -387 -69 -715 -240 -990 -516 -329
-329 -517 -749 -536 -1200 -5 -114 -4 -128 15 -157 26 -42 80 -54 127 -28 42
22 52 49 59 160 13 191 41 330 97 485 184 507 620 899 1143 1029 260 64 534
64 785 0 322 -82 592 -242 816 -482 l76 -82 -356 -5 -356 -5 -26 -27 c-37 -37
-37 -99 0 -136 l26 -27 535 -3 536 -3 -3 532 -3 531 -33 29 c-41 37 -98 40
-130 7z"/>
<path d="M6288 2643 c-36 -23 -46 -51 -53 -158 -30 -438 -183 -784 -479 -1081
-177 -176 -370 -300 -596 -382 -621 -225 -1306 -59 -1760 425 l-82 88 356 5
356 5 26 27 c37 37 37 99 0 136 l-26 27 -536 3 -535 3 3 -532 3 -531 33 -29
c60 -54 132 -34 161 44 7 18 11 151 11 365 l0 336 84 -90 c238 -255 548 -439
892 -529 287 -74 620 -73 923 5 312 80 594 242 831 480 243 242 399 515 484
845 51 201 71 447 41 506 -26 48 -87 63 -137 32z"/>
</g>
</svg>
